<?xml version="1.0" encoding="utf-8"?>
<!-- Generator: Adobe Illustrator 19.0.0, SVG Export Plug-In . SVG Version: 6.00 Build 0)  -->
<svg version="1.1" id="Layer_1"
	 xmlns="http://www.w3.org/2000/svg" xmlns:xlink="http://www.w3.org/1999/xlink" x="0px" y="0px" viewBox="-95 279.5 53 53"
	 style="enable-background:new -95 279.5 53 53;" xml:space="preserve">
<style type="text/css">
	.st0{fill:#FFFFFF;}
	.st1{fill:#0166B1;}
</style>
<metadata><?xpacket begin="﻿" id="W5M0MpCehiHzreSzNTczkc9d"?>
<x:xmpmeta xmlns:x="adobe:ns:meta/" x:xmptk="Adobe XMP Core 5.6-c067 79.157747, 2015/03/30-23:40:42        ">
   <rdf:RDF xmlns:rdf="http://www.w3.org/1999/02/22-rdf-syntax-ns#">
      <rdf:Description rdf:about=""
            xmlns:xmp="http://ns.adobe.com/xap/1.0/"
            xmlns:xmpGImg="http://ns.adobe.com/xap/1.0/g/img/"
            xmlns:xmpTPg="http://ns.adobe.com/xap/1.0/t/pg/"
            xmlns:stDim="http://ns.adobe.com/xap/1.0/sType/Dimensions#"
            xmlns:xmpG="http://ns.adobe.com/xap/1.0/g/"
            xmlns:dc="http://purl.org/dc/elements/1.1/">
         <xmp:CreatorTool>Adobe Illustrator CC 2015 (Windows)</xmp:CreatorTool>
         <xmp:CreateDate>2020-03-06T05:57:59+01:00</xmp:CreateDate>
         <xmp:Thumbnails>
            <rdf:Alt>
               <rdf:li rdf:parseType="Resource">
                  <xmpGImg:width>256</xmpGImg:width>
                  <xmpGImg:height>256</xmpGImg:height>
                  <xmpGImg:format>JPEG</xmpGImg:format>
                  <xmpGImg:image>/9j/4AAQSkZJRgABAgEASABIAAD/7QAsUGhvdG9zaG9wIDMuMAA4QklNA+0AAAAAABAASAAAAAEA&#xA;AQBIAAAAAQAB/+4ADkFkb2JlAGTAAAAAAf/bAIQABgQEBAUEBgUFBgkGBQYJCwgGBggLDAoKCwoK&#xA;DBAMDAwMDAwQDA4PEA8ODBMTFBQTExwbGxscHx8fHx8fHx8fHwEHBwcNDA0YEBAYGhURFRofHx8f&#xA;Hx8fHx8fHx8fHx8fHx8fHx8fHx8fHx8fHx8fHx8fHx8fHx8fHx8fHx8fHx8f/8AAEQgBAAEAAwER&#xA;AAIRAQMRAf/EAaIAAAAHAQEBAQEAAAAAAAAAAAQFAwIGAQAHCAkKCwEAAgIDAQEBAQEAAAAAAAAA&#xA;AQACAwQFBgcICQoLEAACAQMDAgQCBgcDBAIGAnMBAgMRBAAFIRIxQVEGE2EicYEUMpGhBxWxQiPB&#xA;UtHhMxZi8CRygvElQzRTkqKyY3PCNUQnk6OzNhdUZHTD0uIIJoMJChgZhJRFRqS0VtNVKBry4/PE&#xA;1OT0ZXWFlaW1xdXl9WZ2hpamtsbW5vY3R1dnd4eXp7fH1+f3OEhYaHiImKi4yNjo+Ck5SVlpeYmZ&#xA;qbnJ2en5KjpKWmp6ipqqusra6voRAAICAQIDBQUEBQYECAMDbQEAAhEDBCESMUEFURNhIgZxgZEy&#xA;obHwFMHR4SNCFVJicvEzJDRDghaSUyWiY7LCB3PSNeJEgxdUkwgJChgZJjZFGidkdFU38qOzwygp&#xA;0+PzhJSktMTU5PRldYWVpbXF1eX1RlZmdoaWprbG1ub2R1dnd4eXp7fH1+f3OEhYaHiImKi4yNjo&#xA;+DlJWWl5iZmpucnZ6fkqOkpaanqKmqq6ytrq+v/aAAwDAQACEQMRAD8A9U4q7FXYq7FXYq7FXYq7&#xA;FXYq7FXYq7FXYq7FXYq7FXYq7FXYq7FXYq7FXYq7FXYq7FXYq7FXYq7FXYq7FXYq7FXYq7FXYq7F&#xA;XYq7FXYq7FXYq7FXYq7FXYq7FXYq7FXYq7FXYq7FXYq7FXYq7FXYq7FXYq7FXYq7FXYq7FXYq7FX&#xA;Yq7FXYq7FXYq7FXYq7FXYq7FXYq7FXYq7FXYq7FXYq7FXYq7FXYq7FXYq7FXYq7FXYq7FXYq7FXY&#xA;q7FXYq7FXYq7FXYq7FXYq7FXYq7FXYq7FXYq7FXYq7FXYq7FXYq7FXYq7FXYq7FXYq7FXYq7FXYq&#xA;7FXYq7FXYq7FXYq7FXYq7FXYq7FXYq7FXYq7FXYq7FXYq7FXYq7FXYq7FXYq7FXYq7FXYq7FXYq7&#xA;FXYq7FXYq7FXYq7FXYq7FXYq7FXYq7FXYq7FXYq7FXYq7FXYq7FXYq7FXYq7FXYq7FXYq7FXYq7F&#xA;XYq7FXYq7FXYq7FXYq7FXYq7FXYq7FXYq7FXYqxnW/zL8iaKzJf6zbrKuzQwkzyA+BSEOV+nMrFo&#xA;s0+UT933uJl12HH9Uh9/3MO1D/nI/wAmQErZ2d7dkdG4RxIfpZ+X/C5nQ7FynmQHCn23iHIEpNN/&#xA;zk7bgj0fLruN687sJ8ukL5cOwz1n9n7Wg9ujpD7f2PcM0Lv3Yq7FXYq7FXYq7FXYq7FXYq7FXYq7&#xA;FXYq7FXYq7FXYq7FXYq7FXYq7FXYq7FXYq07oiM7sFRQSzE0AA3JJOICkvK/Ov5/+XtIaSz0JBrF&#xA;8uxmBpaof9cbyf7Hb/Kzb6Xsic95+kfa6fVdrwhtD1H7Hifmf8yvOfmRmXUdRkFs3/HlAfSgA8Ci&#xA;/a/2Vc3uDRYsX0jfv6uhz67Ll+o7d3Ri+ZTiOxV2KvunOBfQXYq7FXYq7FXYq7FXYq7FXYq7FXYq&#xA;7FXYq7FXYq7FXYq7FXYq7FXYq7FXYq7FUs8x+ZNH8u6VLqerTiC2i2HdnelQiL+0xpsP4ZbhwyyS&#xA;4YjdqzZ44o8Ujs+ZvzE/NzXvNsslrEWsNDB/d2SN8UgB2adh9o/5P2R79c6nR9nww7neff8AqeU1&#xA;vaM8xobQ7v1sCzYOudirsVdirsVfdOcC+guxV2KuxV2KuxV2KuxV2KuxV2KuxV2KuxV2KuxV2Kux&#xA;V2KuxV2KuxV2KuxVLPMnmPSvLujz6tqcvpW0A6CnN2P2UQGlWbsP4ZbhwyySEY82rPmjiiZS5Pk7&#xA;z1561jzfrD3t65S2QkWVkCfThjrsAO7H9pu/yoM7DS6WOGNDn1Lxur1cs0rPLoO5jWZLiuxV2Kux&#xA;V2KuxV905wL6C7FXYq7FXYq7FXYq7FXYq7FXYq7FXYq7FXYq7FXYq7FXYq7FXYq7FXYq07oiM7sF&#xA;RQSzE0AA3JJOICkvlT83PzEl8268YrWQjQ7BmSyj3Akbo07Dxb9nwX5nOu7P0fgws/Wef6nj+0da&#xA;c06H0Dl+tgWbB1zsVdirsVdirsVdir7pzgX0F2KuxV2KuxV2KuxV2KuxV2KuxV2KuxV2KuxV2Kux&#xA;V2KuxV2KuxV2KuxV5V+f/nVtI8vJoVnJxvtYBExHVLUbP/yMPw/Llm37I0vHPjPKP3un7X1XBDgH&#xA;OX3PmvOneWdirsVdirsVdirsVdir7pzgX0F2KuxV2KuxV2KuxV2KuxV2KuxV2KuxV2KuxV2KuxV2&#xA;KuxV2KuxV2KuxV8ffmV5nbzJ5z1HUVblbCQwWXgIIvhQj/W+19OdposHhYhHr197xOuz+LlMunT3&#xA;MXzKcR2KuxV2KuxV2KuxV2KvunOBfQXYq7FXYq7FXYq7FXYq7FXYq7FXYq7FXYq7FXYq7FXYq7FX&#xA;Yq7FXYqxn8y9bbRfIms36NxlW3MMLDqJJyIUI/1S9cytFi480R5/du4muy+HhlLy+/Z8eZ2jxLsV&#xA;dirsVdirsVdirsVdir7pzgX0F2KuxV2KuxV2KuxV2KuxV2KuxV2KuxV2KuxV2KuxV2KuxV2KuxV2&#xA;KvKP+cj9QMHkyzs1NDd3qch4pFG7H/huObjsWF5Se4On7bnWIDvL5tzpnlnYq7FXYq7FXYq7FXYq&#xA;7FX3TnAvoLsVdirsVdirsVdirsVdirsVdirsVdirsVdirsVdirsVdirsVdirsVeH/wDOTsxFv5dh&#xA;ps73b1r/ACCEdP8AZ5vuwxvM+79LoO3TtAe/9DwbOgeddirsVdirsVdirsVdirsVfdOcC+guxV2K&#xA;uxV2KuxV2KuxV2KuxV2KuxV2KuxV2KuxV2KuxV2KuxV2KuxV2KuxV2KuxV2KuxV2KuxV2KuxV8LZ&#xA;3z587FXYq7FXYq7FXYq7FXYq95/5xihIt/MU1dne0SlP5BMev+zzn+3DvAe/9D0XYQ2mfd+l7hmh&#xA;d+7FXYq7FXYq7FXYq7FXYq7FXYq7FXYq7FXYq7FXYq7FXYq7FXYq7FXwtnfPnzsVdirsVdirsVdi&#xA;rsVdir6S/wCccNPMHky8vGFDd3r8T4pFGij/AIblnM9tTvKB3B6nsSFYie8vV807uHYq7FXYq7FX&#xA;Yq7FXYq7FXYq7FXYq7FXYq7FXYq7FXYq7FXYq7FXYq+Fs758+dirsVdirsVdirsVdirsVfYf5aaI&#xA;2i+RNGsHXjKtuJplPUSTkzOD/ql6Zxety8eaR8/u2e20OLw8MY+X37smzFct2KuxV2KuxV2KuxV2&#xA;KuxV2KuxV2KuxV2KuxV2KuxV2KuxV2KuxV2KvhbO+fPnYq7FXYq7FXYq7FXYqyj8tfLDeZPOenac&#xA;y8rYSCe98BBF8Tg/632fpzF1ufwsRl16e9y9Dg8XKI9OvufYOcW9s7FXYq7FXYq7FXYq7FXYq7FX&#xA;Yq7FXYq7FXYq7FXYq7FXYq7FXYq7FXYq+Fs758+dirsVdirsVdirsVdir6U/IDyU2keXn128j432&#xA;sAGEHqlqN0/5GH4vlxzmO19Vxz4Byj971PZGl4IcZ5y+56rmodw7FXYq7FXYq7FXYq7FXYq7FXYq&#xA;7FXYq7FXYq7FXYq7FXYq7FXYq7FXYq+Fs758+dirsVdirsVdirsVZ7+Uf5dy+bdeEt1GRodgyvey&#xA;bgSN1WBT4t+14L8xmv7Q1ngwofWeX63Y9naI5p2foHP9T6rRERFRFCooAVQKAAbAADORJewAbxV2&#xA;KuxV2KuxV2KuxV2KuxV2KuxV2KuxV2KuxV2KuxV2KuxV2KuxV2KuxV8LZ3z587FXYq7FXYq7FWS+&#xA;RfIuseb9YSyskKWyEG9vSD6cMddyT3Y/sr3+VTmNqtVHDGzz6BytJpJZpUOXU9z6x8t+XNK8u6PB&#xA;pOmRelbQDqac3Y/adyKVZu5/hnH5s0skjKXN7LBhjiiIx5JnlTa7FXYq7FXYq7FXYq7FXYq7FXYq&#xA;7FXYq7FXYq7FXYq7FXYq7FXYq7FXYq7FXwtnfPnzsVdirsVdirPfy7/KPXvNssd1KGsNDB/eXrr8&#xA;UgB3WBT9o/5X2R79M1+s7Qhh2G8+79bsdF2dPMbO0O/9T6Z8ueW9H8u6VFpmkwCC2i3PdnelC7t+&#xA;0xpuf4Zy2bNLJLikd3q8OCOKPDEbJnlTa7FXYq7FXYq7FXYq7FXYq7FXYq7FXYq7FXYq7FXYq7FX&#xA;Yq7FXYq7FXYq7FXYq+Fs758+dirsVZR5Y/LXzn5kZW07TpBbN/x+zj0oAPEO32v9jXMXPrcWL6jv&#xA;3dXLwaHLl+kbd/R7Z5K/IDy9pDR3muuNYvl3EJFLVD/qHeT/AGW3+Tmi1Xa857Q9I+132l7IhDef&#xA;qP2PVERERURQqKAFUCgAGwAAzUEu4AbxV2KuxV2KuxV2KuxV2KuxV2KuxV2KuxV2KuxV2KuxV2Ku&#xA;xV2KuxV2KuxV2KuxV2KvD4f+cYrcE+t5idxtThaBPn1mfN8e3D0h9v7HQDsIdZ/Z+1OdP/5xw8mQ&#xA;ENeXl7dkdV5xxIfoVOX/AA2Uz7aynkAG+HYmIcySzHRPy08iaKyvYaNbrKu6zTAzyA+IeYuV+jMH&#xA;Lrc0+cj933Obi0OHH9MR9/3smzFct2KuxV2KuxV2KuxV2KuxV2KuxV2KuxV2KuxV2KuxV2KuxV2K&#xA;uxV2KuxV2KuxV2KuxV2KuxV2KuxV2KuxV2KuxV2KuxV2KuxV2KuxV2KuxV2KuxV2KuxV2KuxV2Ku&#xA;xV2KuxV2KuxV2KuxV2KuxV2KuxV2KuxV2KuxV2KuxV2KuxV2KuxV2KuxV2KuxV2KuxV2KuxV2Kux&#xA;V2KuxV2KuxV2KuxV2KuxV2KuxV2KuxV2KuxV2KuxV2KuxV2KuxV2KuxV2KuxV2KuxV2KuxV2KuxV&#xA;2KuxV2KuxV2KuxV2KuxV2KuxV2KuxV2KuxV2KuxV2KuxV2KuxV2KuxV2KuxV2KuxV2KuxV2KuxV2&#xA;KuxV2KuxV2KuxV2KuxV2KuxV2KuxV2KuxV2KuxV2KuxV2KuxV2KuxV2KuxV2KuxV2KuxV2KuxV2K&#xA;uxV2KuxV2KuxV2KuxV2KuxV2KuxV2KuxV2KuxV2KuxV2KuxV2KuxV2KuxV2KuxV2KuxV2KuxV2Ku&#xA;xV2KuxV//9k=</xmpGImg:image>
               </rdf:li>
            </rdf:Alt>
         </xmp:Thumbnails>
         <xmpTPg:MaxPageSize rdf:parseType="Resource">
            <stDim:w>53.000000</stDim:w>
            <stDim:h>53.000000</stDim:h>
            <stDim:unit>Points</stDim:unit>
         </xmpTPg:MaxPageSize>
         <xmpTPg:NPages>1</xmpTPg:NPages>
         <xmpTPg:HasVisibleTransparency>False</xmpTPg:HasVisibleTransparency>
         <xmpTPg:HasVisibleOverprint>False</xmpTPg:HasVisibleOverprint>
         <xmpTPg:PlateNames>
            <rdf:Seq>
               <rdf:li>Cyan</rdf:li>
               <rdf:li>Magenta</rdf:li>
               <rdf:li>Yellow</rdf:li>
            </rdf:Seq>
         </xmpTPg:PlateNames>
         <xmpTPg:SwatchGroups>
            <rdf:Seq>
               <rdf:li rdf:parseType="Resource">
                  <xmpG:groupName>Default Swatch Group</xmpG:groupName>
                  <xmpG:groupType>0</xmpG:groupType>
               </rdf:li>
            </rdf:Seq>
         </xmpTPg:SwatchGroups>
         <dc:format>image/svg+xml</dc:format>
      </rdf:Description>
   </rdf:RDF>
</x:xmpmeta>
                                                                                                    
                                                                                                    
                                                                                                    
                                                                                                    
                                                                                                    
                                                                                                    
                                                                                                    
                                                                                                    
                                                                                                    
                                                                                                    
                                                                                                    
                                                                                                    
                                                                                                    
                                                                                                    
                                                                                                    
                                                                                                    
                                                                                                    
                                                                                                    
                                                                                                    
                                                                                                    
                           
<?xpacket end="w"?>
	</metadata>
<title>BMW-logo-grey-fallback-53px</title>
<desc>Created with Sketch.</desc>
<g id="BMW-logo-grey-fallback-53px">
	<g id="BMW-logo">
		<g id="BMW-logo-fallback">
			<g id="BMW_Grey-Colour_RGB-2">
				<g id="BMW_Grey-Colour_RGB">
					<path id="Shape" class="st0" d="M-68.5,279.5c-14.6,0-26.5,11.9-26.5,26.5s11.9,26.5,26.5,26.5S-42,320.7-42,306
						S-53.9,279.5-68.5,279.5L-68.5,279.5z M-43.7,306c0,13.7-11.1,24.8-24.8,24.8s-24.8-11.1-24.8-24.8s11.1-24.8,24.8-24.8
						S-43.7,292.3-43.7,306z"/>
					<g id="Group" transform="translate(7.197531, 3.271605)">
						<path id="W_61_" class="st0" d="M-63,291.6c0.4,0.4,0.9,1,1.2,1.4l5.4-3.4c-0.3-0.3-0.7-0.9-1-1.2l-3.4,2.2l-0.2,0.2l0.2-0.3
							l1.5-3l-1.1-1.1l-3,1.5l-0.3,0.2l0.2-0.2l2.2-3.4c-0.4-0.3-0.8-0.6-1.3-1l-3.4,5.3c0.4,0.3,1,0.8,1.4,1.1l3.2-1.7l0.2-0.1
							l-0.2,0.2L-63,291.6z"/>
						<path id="M_61_" class="st0" d="M-75.2,284.8l1.5-3.3l0.1-0.3l0,0.3l0.2,4.4c0.5,0,1,0.1,1.6,0.2l-0.2-6.4
							c-0.7-0.1-1.5-0.1-2.2-0.2l-1.4,3.6l-0.1,0.3l-0.1-0.3l-1.4-3.6c-0.7,0-1.5,0.1-2.2,0.2l-0.2,6.4c0.5-0.1,1.1-0.2,1.6-0.2
							l0.2-4.4l0-0.3l0.1,0.3l1.5,3.3H-75.2z"/>
						<path id="B_x5F_22d_61_" class="st0" d="M-87,290c0.8-0.9,1.3-1.9,0.5-2.9c-0.5-0.5-1.2-0.6-1.9-0.4l-0.1,0l0-0.1
							c0.1-0.3,0.2-1.1-0.5-1.6c-0.3-0.3-0.8-0.4-1.2-0.3c-0.8,0.1-1.4,0.6-3.1,2.5c-0.5,0.6-1.2,1.4-1.7,2l4.6,4.3
							C-88.8,291.8-88.2,291.2-87,290z M-93,288.9c0.9-1.1,1.9-2.1,2.3-2.5c0.1-0.1,0.3-0.3,0.5-0.3c0.3-0.1,0.6,0.1,0.7,0.4
							c0.1,0.3-0.1,0.6-0.3,0.8c-0.5,0.5-2.3,2.4-2.3,2.4L-93,288.9z M-91.2,290.6c0,0,1.7-1.8,2.3-2.4c0.2-0.2,0.4-0.4,0.5-0.4
							c0.2-0.1,0.4-0.1,0.6,0c0.2,0.1,0.3,0.3,0.2,0.6c-0.1,0.3-0.3,0.5-0.4,0.7c-0.2,0.3-2.3,2.4-2.3,2.5L-91.2,290.6z"/>
					</g>
					<path id="Path" class="st1" d="M-68.5,290.3V306h-15.7C-84.2,297.4-77.2,290.3-68.5,290.3z"/>
					<path id="Path_1_" class="st1" d="M-52.8,306c0,8.7-7,15.7-15.7,15.7V306H-52.8z"/>
					<path id="Path_3_" class="st0" d="M-52.8,306h-15.7v-15.7C-59.8,290.3-52.8,297.4-52.8,306z"/>
					<path id="Path_2_" class="st0" d="M-68.5,321.7c-8.7,0-15.7-7-15.7-15.7h15.7V321.7z"/>
				</g>
			</g>
		</g>
	</g>
</g>
</svg>
